<svg width="18" height="18" viewBox="0 0 18 18" fill="none" xmlns="http://www.w3.org/2000/svg">
<path opacity="0.54" fill-rule="evenodd" clip-rule="evenodd" d="M11.6265 10.5H11.031L10.824 10.2945C11.5553 9.44179 12 8.33629 12 7.12504C12 4.43254 9.8175 2.25004 7.125 2.25004C4.4325 2.25004 2.25 4.43254 2.25 7.12504C2.25 9.81754 4.4325 12 7.125 12C8.33625 12 9.441 11.556 10.2937 10.8255L10.5007 11.031V11.625L14.2493 15.3683L15.3675 14.25L11.6265 10.5ZM7.125 10.5C5.2605 10.5 3.75 8.98954 3.75 7.12504C3.75 5.26129 5.2605 3.75004 7.125 3.75004C8.98875 3.75004 10.5 5.26129 10.5 7.12504C10.5 8.98954 8.98875 10.5 7.125 10.5Z" fill="black"/>
</svg>
